<svg xmlns="http://www.w3.org/2000/svg" width="20.5" height="25.25" viewBox="0 0 20.5 25.25">
    <defs>
        <style>
            .cls-1,.cls-2{fill:none;stroke:#39363e;stroke-linecap:round;stroke-linejoin:round;stroke-width:1.5px}.cls-2{opacity:0}
        </style>
    </defs>
    <g id="Group_137" transform="translate(-2.25 .75)">
        <g id="Group_6" transform="translate(-1842 -30.25)">
            <path id="Path_3" d="M15.875 2h-9.5A2.375 2.375 0 0 0 4 4.375v19a2.375 2.375 0 0 0 2.375 2.375h14.25A2.375 2.375 0 0 0 23 23.375V9.125z" class="cls-1" transform="translate(1841 28.25)"/>
            <path id="Path_4" d="M14 2v7.125h7.125" class="cls-1" transform="translate(1842.875 28.25)"/>
            <path id="Line_3" d="M0 0L0 0" class="cls-2" transform="translate(1850 43)"/>
            <path id="Line_4" d="M0 0L0 0" class="cls-2" transform="translate(1850 48)"/>
            <path id="Path_5" d="M8.14 9H8" class="cls-2" transform="translate(1841.75 29.563)"/>
        </g>
        <path id="Line_36" d="M0 0L9 0" class="cls-1" transform="translate(8 12.75)"/>
        <path id="Line_37" d="M0 0L9 0" class="cls-1" transform="translate(8 17.75)"/>
        <path id="Path_44" d="M10.546 9H8" class="cls-1" transform="translate(-.25 -.688)"/>
    </g>
</svg>
