<svg xmlns="http://www.w3.org/2000/svg" width="48" height="48" viewBox="0 0 48 48">
    <g>
        <g transform="translate(-.001 -.001)">
            <g>
                <g>
                    <path fill="#39353d" d="M19.141 0H14.5a.592.592 0 0 0-.592.592v4.045H9.867a.592.592 0 0 0-.592.592v4.045H5.23a.592.592 0 0 0-.592.592v4.045H.593A.592.592 0 0 0 0 14.5v4.64a.592.592 0 0 0 .592.592h18.549a.592.592 0 0 0 .592-.592V.592A.592.592 0 0 0 19.141 0zm-.592 18.548H1.185v-3.453H5.23a.592.592 0 0 0 .592-.592v-4.045h4.045a.592.592 0 0 0 .592-.592V5.821H14.5a.592.592 0 0 0 .592-.592V1.184h3.453z" transform="translate(13.803 14.463) translate(-.001)"/>
                </g>
            </g>
        </g>
    </g>
</svg>
