<svg xmlns="http://www.w3.org/2000/svg" width="10.07" height="24.868" viewBox="0 0 10.07 24.868">
    <defs>
        <style>
            .cls-1{fill:#39363e}
        </style>
    </defs>
    <g id="person-silhouette" transform="translate(-37.25)">
        <path id="Path_128" d="M40.309 54.679h3.953a1.2 1.2 0 0 0 1.192-1.192v-6.534h.675a1.2 1.2 0 0 0 1.192-1.192v-7.369a1.2 1.2 0 0 0-1.193-1.192h-7.686a1.2 1.2 0 0 0-1.192 1.192v7.369a1.2 1.2 0 0 0 1.192 1.192h.675v6.535a1.183 1.183 0 0 0 1.192 1.191z" class="cls-1" transform="translate(0 -29.811)"/>
        <circle id="Ellipse_16" cx="3.118" cy="3.118" r="3.118" class="cls-1" transform="translate(39.157)"/>
    </g>
</svg>
