<svg xmlns="http://www.w3.org/2000/svg" id="Component_39_2" width="82.521" height="31.953" viewBox="0 0 82.521 31.953">
    <defs>
        <style>
            .cls-2,.cls-5{fill:#707070}.cls-4,.cls-5{stroke:none}
        </style>
    </defs>
    <path id="Path_67" fill="none" stroke="#707070" stroke-width="2px" d="M-4347-8198.273s10.4 18.844 35.023 18.844 34.529-18.844 34.529-18.844" transform="translate(4353.841 8205.346)"/>
    <g id="Polygon_2" class="cls-2">
        <path d="M7.138 6.5H.862L4 1.008 7.138 6.5z" class="cls-4" transform="rotate(-38 7.152 2.462)"/>
        <path d="M4 2.016L1.723 6h4.554L4 2.016M4 0l4 7H0l4-7z" class="cls-5" transform="rotate(-38 7.152 2.462)"/>
    </g>
    <g id="Polygon_3" class="cls-2">
        <path d="M7.138 6.5H.862L4 1.008 7.138 6.5z" class="cls-4" transform="rotate(30 37.444 141.153)"/>
        <path d="M4 2.016L1.723 6h4.554L4 2.016M4 0l4 7H0l4-7z" class="cls-5" transform="rotate(30 37.444 141.153)"/>
    </g>
    <g id="Ellipse_11" fill="#fff" stroke="#707070" stroke-width="2px" transform="translate(38.307 22.953)">
        <circle cx="3.5" cy="3.5" r="3.5" class="cls-4"/>
        <circle cx="3.5" cy="3.5" r="4.5" fill="none"/>
    </g>
</svg>
