<svg xmlns="http://www.w3.org/2000/svg" width="25.91" height="25.91" viewBox="0 0 25.91 25.91">
    <defs>
        <style>
            .cls-1{fill:#39363e;stroke:#39363e;stroke-width:.7px}
        </style>
    </defs>
    <g id="square-ruler" transform="translate(-1.65 -1.641)">
        <path id="Path_86" d="M26.84 27.2H2.36a.36.36 0 0 1-.36-.36V2.36a.36.36 0 0 1 .615-.255l24.48 24.48a.36.36 0 0 1-.255.615zm-24.12-.72h23.251L2.72 3.229z" class="cls-1"/>
        <path id="Path_87" d="M24.319 40.236H13.36a.36.36 0 0 1-.36-.36v-10.96a.36.36 0 0 1 .615-.255l10.959 10.96a.36.36 0 0 1-.255.615zm-10.6-.72h9.73l-9.73-9.731z" class="cls-1" transform="translate(-7.04 -16.996)"/>
        <path id="Path_88" d="M53.891 68.864a.36.36 0 0 1-.36-.36V67.46a.36.36 0 0 1 .72 0v1.04a.36.36 0 0 1-.36.364z" class="cls-1" transform="translate(-32.98 -41.664)"/>
        <path id="Path_89" d="M46.891 68.16a.36.36 0 0 1-.36-.36v-1.44a.36.36 0 1 1 .72 0v1.44a.36.36 0 0 1-.36.36z" class="cls-1" transform="translate(-28.5 -40.96)"/>
        <path id="Path_90" d="M39.891 68.864a.36.36 0 0 1-.36-.36V67.46a.36.36 0 0 1 .72 0v1.04a.36.36 0 0 1-.36.364z" class="cls-1" transform="translate(-24.02 -41.664)"/>
        <path id="Path_91" d="M32.891 68.16a.36.36 0 0 1-.36-.36v-1.44a.36.36 0 1 1 .72 0v1.44a.36.36 0 0 1-.36.36z" class="cls-1" transform="translate(-19.54 -40.96)"/>
        <path id="Path_92" d="M25.891 68.864a.36.36 0 0 1-.36-.36V67.46a.36.36 0 0 1 .72 0v1.04a.36.36 0 0 1-.36.364z" class="cls-1" transform="translate(-15.06 -41.664)"/>
        <path id="Path_93" d="M18.891 68.16a.36.36 0 0 1-.36-.36v-1.44a.36.36 0 1 1 .72 0v1.44a.36.36 0 0 1-.36.36z" class="cls-1" transform="translate(-10.58 -40.96)"/>
        <path id="Path_94" d="M11.891 68.864a.36.36 0 0 1-.36-.36V67.46a.36.36 0 0 1 .72 0v1.04a.36.36 0 0 1-.36.364z" class="cls-1" transform="translate(-6.1 -41.664)"/>
        <path id="Path_95" d="M3.4 59.72H2.36a.36.36 0 1 1 0-.72H3.4a.36.36 0 1 1 0 .72z" class="cls-1" transform="translate(0 -36.48)"/>
        <path id="Path_96" d="M3.8 52.72H2.36a.36.36 0 0 1 0-.72H3.8a.36.36 0 0 1 0 .72z" class="cls-1" transform="translate(0 -32)"/>
        <path id="Path_97" d="M3.4 45.72H2.36a.36.36 0 0 1 0-.72H3.4a.36.36 0 0 1 0 .72z" class="cls-1" transform="translate(0 -27.52)"/>
        <path id="Path_98" d="M3.8 38.72H2.36a.36.36 0 1 1 0-.72H3.8a.36.36 0 0 1 0 .72z" class="cls-1" transform="translate(0 -23.04)"/>
        <path id="Path_99" d="M3.4 31.72H2.36a.36.36 0 1 1 0-.72H3.4a.36.36 0 1 1 0 .72z" class="cls-1" transform="translate(0 -18.56)"/>
        <path id="Path_100" d="M3.8 24.72H2.36a.36.36 0 1 1 0-.72H3.8a.36.36 0 0 1 0 .72z" class="cls-1" transform="translate(0 -14.08)"/>
        <path id="Path_101" d="M3.4 17.72H2.36a.36.36 0 0 1 0-.72H3.4a.36.36 0 0 1 0 .72z" class="cls-1" transform="translate(0 -9.6)"/>
    </g>
</svg>
