<svg xmlns="http://www.w3.org/2000/svg" width="48" height="48" viewBox="0 0 48 48">
    <g>
        <g transform="translate(-.001 -.001)">
            <path fill="#39353d" d="M9.251 14.329H2.9a2.906 2.906 0 0 1-2.9-2.9V7.145a2.906 2.906 0 0 1 2.9-2.9h6.351a.726.726 0 0 1 0 1.451H2.9a1.453 1.453 0 0 0-1.449 1.449v4.281A1.453 1.453 0 0 0 2.9 12.877h6.351a.726.726 0 0 1 0 1.451zm6.422-10.086h-.653a.726.726 0 1 0 0 1.451h.653a1.453 1.453 0 0 1 1.451 1.451v4.281a1.453 1.453 0 0 1-1.451 1.451h-.653a.726.726 0 1 0 0 1.451h.653a2.906 2.906 0 0 0 2.9-2.9V7.145a2.906 2.906 0 0 0-2.9-2.902zm-.653 12.881a2.179 2.179 0 0 1-2.177-2.177V3.628a2.179 2.179 0 0 1 2.177-2.177.726.726 0 0 0 0-1.451 3.625 3.625 0 0 0-2.9 1.454A3.625 3.625 0 0 0 9.215 0a.726.726 0 1 0 0 1.451 2.179 2.179 0 0 1 2.177 2.177v11.319a2.179 2.179 0 0 1-2.177 2.177.726.726 0 1 0 0 1.451 3.625 3.625 0 0 0 2.9-1.454 3.625 3.625 0 0 0 2.9 1.454.726.726 0 0 0 0-1.451z" transform="translate(13.712 14.712)"/>
        </g>
    </g>
</svg>
